<?xml version="1.0" standalone="no"?>
<!DOCTYPE svg PUBLIC "-//W3C//DTD SVG 20010904//EN"
 "http://www.w3.org/TR/2001/REC-SVG-20010904/DTD/svg10.dtd">
<svg version="1.0" xmlns="http://www.w3.org/2000/svg"
 width="512.000000pt" height="512.000000pt" viewBox="0 0 512.000000 512.000000"
 preserveAspectRatio="xMidYMid meet">

<g transform="translate(0.000000,512.000000) scale(0.100000,-0.100000)"
fill="#000000" stroke="none">
<path d="M2414 5100 c-231 -60 -401 -237 -449 -467 -29 -134 -11 -265 51 -393
52 -105 170 -223 274 -273 78 -37 199 -67 270 -67 71 0 192 30 270 67 105 50
223 168 274 275 105 220 80 458 -70 648 -144 184 -396 269 -620 210z"/>
<path d="M4483 4799 c-23 -4 -51 -13 -62 -19 -12 -6 -276 -227 -587 -491 -311
-265 -596 -501 -633 -526 -307 -207 -660 -258 -989 -141 -191 67 -316 148
-587 379 -651 555 -902 764 -936 781 -24 11 -60 18 -97 18 -196 0 -309 -216
-194 -372 15 -20 330 -287 699 -594 l673 -557 2 -1606 3 -1605 75 -30 c67 -26
87 -30 185 -30 110 -1 170 12 248 51 l27 14 0 819 c0 800 0 820 19 830 26 13
436 13 462 0 19 -10 19 -30 19 -831 l0 -820 47 -20 c147 -63 299 -63 446 0
l47 20 0 1604 0 1603 663 549 c364 302 677 565 694 584 43 45 67 120 60 182
-17 142 -142 234 -284 208z"/>
</g>
</svg>
